<svg xmlns="http://www.w3.org/2000/svg" width="128" height="128" viewBox="0 0 24 24" fill="none">
  <defs>
    <linearGradient id="g" x1="0" x2="1">
      <stop offset="0" stop-color="#7c3aed"/>
      <stop offset="1" stop-color="#a78bfa"/>
    </linearGradient>
  </defs>
  <rect width="24" height="24" rx="6" fill="url(#g)"/>
  <path d="M7 9c0-1.657 1.343-3 3-3s3 1.343 3 3v1h1a1 1 0 0 1 1 1v2a1 1 0 0 1-1 1h-1v1a2 2 0 0 1-2 2H10a2 2 0 0 1-2-2v-1H7a1 1 0 0 1-1-1v-2a1 1 0 0 1 1-1h1V9z" fill="#fff" opacity="0.95"/>
</svg>
